<svg width="200" height="200" viewBox="0 0 200 200" fill="none" xmlns="http://www.w3.org/2000/svg">
<path fill-rule="evenodd" clip-rule="evenodd" d="M100 200C155.228 200 200 155.228 200 100C200 44.7715 155.228 0 100 0C44.7715 0 0 44.7715 0 100C0 155.228 44.7715 200 100 200ZM100 190C149.706 190 190 149.706 190 100C190 50.2944 149.706 10 100 10C50.2944 10 10 50.2944 10 100C10 149.706 50.2944 190 100 190Z" fill="url(#paint0_linear_2_23)"/>
<path fill-rule="evenodd" clip-rule="evenodd" d="M100 200C155.228 200 200 155.228 200 100C200 44.7715 155.228 0 100 0C44.7715 0 0 44.7715 0 100C0 155.228 44.7715 200 100 200ZM100 190C149.706 190 190 149.706 190 100C190 50.2944 149.706 10 100 10C50.2944 10 10 50.2944 10 100C10 149.706 50.2944 190 100 190Z" fill="url(#paint1_linear_2_23)" fill-opacity="0.81"/>
<g filter="url(#filter0_i_2_23)">
<path d="M142.249 51.5973C142.492 51.652 142.732 51.7248 142.964 51.8152L148.319 53.8953C149.483 54.3474 150.436 55.2186 150.99 56.3376L153.077 60.5544C153.419 61.2441 153.596 62.0032 153.596 62.7728V68.6077V75.6916C153.596 76.4087 153.442 77.1175 153.144 77.7698L151.492 81.3839C150.664 83.1959 150.991 85.3266 152.324 86.8073L155.622 90.4716C155.813 90.6831 155.985 90.9105 156.136 91.1513L159.954 97.2105L163.23 102.41C163.733 103.208 164 104.132 164 105.075V110.102C164 111.205 163.635 112.278 162.961 113.152L160.386 116.497C160.099 116.869 159.762 117.198 159.384 117.476L154.072 121.378C153.756 121.61 153.414 121.804 153.052 121.956L147.088 124.466C146.804 124.586 146.509 124.679 146.207 124.744L143.219 125.391C140.614 125.954 138.91 128.462 139.344 131.092L139.584 132.551C139.677 133.114 139.673 133.689 139.572 134.251L138.643 139.41C138.594 139.685 138.521 139.955 138.427 140.218L136.522 145.507C136.346 145.996 136.096 146.453 135.779 146.864L133.268 150.125C132.583 151.014 131.619 151.647 130.531 151.922L125.878 153.097C125.478 153.198 125.066 153.249 124.654 153.249H118.581C118.038 153.249 117.499 153.161 116.985 152.987L109.991 150.633C109.397 150.433 108.846 150.123 108.366 149.719L105.684 147.462C103.691 145.785 100.744 145.919 98.9115 147.77L97.3882 149.308C97.0999 149.599 96.7769 149.854 96.4265 150.066L91.7682 152.889C91.3742 153.128 90.949 153.311 90.5048 153.433L85.4683 154.82C85.0357 154.94 84.5891 155 84.1405 155H79.3079C78.3751 155 77.4609 154.739 76.6686 154.247L71.2469 150.877C70.6664 150.516 70.1661 150.04 69.7768 149.479L66.7331 145.087C66.4598 144.693 66.2448 144.262 66.0944 143.806L63.6831 136.5C63.5162 135.995 63.4312 135.465 63.4312 134.933V130.366C63.4312 128.042 61.8296 126.024 59.5661 125.496L56.3307 124.742C56.0557 124.678 55.7866 124.591 55.5263 124.481L49.66 122.013C49.2102 121.823 48.7905 121.569 48.4144 121.259L43.1202 116.884C42.7906 116.612 42.4974 116.298 42.2476 115.951L39.1748 111.684C38.4209 110.637 38.1009 109.339 38.2816 108.062L39.0061 102.94C39.1049 102.242 39.3504 101.572 39.7265 100.975L43.2018 95.4593L47.3644 89.6789C47.67 89.2544 48.0404 88.8806 48.4619 88.5709L50.5733 87.0201C52.6281 85.5109 53.2183 82.6973 51.9431 80.4896L50.593 78.152C50.2919 77.6307 50.0874 77.0593 49.9894 76.4654L48.9817 70.3589L48.0504 65.1862C47.9029 64.3669 47.9623 63.5238 48.2233 62.7332L49.5481 58.7191C49.9281 57.5678 50.7135 56.5937 51.7582 55.9783L56.4148 53.2349C56.8513 52.9777 57.3244 52.7884 57.8179 52.6734L64.2042 51.1849C64.4591 51.1255 64.7183 51.0862 64.9794 51.0674L72.6789 50.512L77.88 50.8622C79.9652 51.0025 81.9177 49.8313 82.7754 47.9255L83.9296 45.361C84.1344 44.906 84.4061 44.4842 84.7358 44.1096L88.5589 39.7659C88.7608 39.5365 88.9833 39.3261 89.2236 39.1373L93.387 35.8669C93.8352 35.5148 94.3402 35.242 94.8804 35.0602L99.4047 33.537C100.44 33.1886 101.56 33.1886 102.595 33.537L107.12 35.0602C107.66 35.242 108.165 35.5148 108.613 35.8669L112.776 39.1373C113.017 39.3261 113.239 39.5365 113.441 39.7659L117.264 44.1096C117.594 44.4842 117.866 44.906 118.07 45.361L119.173 47.8112C120.056 49.7728 122.095 50.9499 124.235 50.7338L126.431 50.512H132.211H136.859C137.227 50.512 137.594 50.5527 137.954 50.6333L142.249 51.5973Z" stroke="url(#paint2_linear_2_23)" stroke-width="5"/>
</g>
<g filter="url(#filter1_d_2_23)">
<path d="M42.4114 90.7957C42.301 90.5741 42.2071 90.3446 42.1306 90.1091L40.3683 84.6817C39.983 83.4952 40.0552 82.2074 40.5708 81.0714L42.473 76.8796C42.7938 76.1728 43.2747 75.5503 43.8777 75.0615L48.3269 71.4553L53.7342 67.0724C54.2962 66.6168 54.9504 66.2887 55.6517 66.1105L59.3647 65.1675C61.3109 64.6731 62.7726 63.0625 63.0763 61.0776L63.8048 56.3171C63.848 56.035 63.9152 55.7572 64.0057 55.4866L66.2514 48.776L68.171 43.0395C68.4728 42.1377 69.0255 41.3407 69.7642 40.7419L73.5608 37.6646C74.4246 36.9645 75.4971 36.5722 76.6087 36.5499L80.7484 36.4667C81.2173 36.4572 81.6853 36.5138 82.1384 36.6348L88.4519 38.3201C88.8291 38.4208 89.1933 38.5654 89.5369 38.7508L95.1998 41.8068C95.4694 41.9523 95.7251 42.1223 95.9636 42.3146L98.3034 44.2012C100.384 45.8784 103.415 45.6236 105.186 43.6227L106.085 42.6071C106.467 42.1755 106.921 41.8131 107.426 41.5361L111.935 39.0655C112.182 38.9301 112.44 38.8159 112.706 38.724L117.931 36.9206C118.424 36.7504 118.94 36.6584 119.462 36.6479L123.511 36.5666C124.629 36.5441 125.722 36.8971 126.616 37.5691L130.436 40.4407C130.762 40.6864 131.058 40.9712 131.315 41.2888L135.129 45.9935C135.467 46.411 135.736 46.8803 135.925 47.3834L138.509 54.2606C138.728 54.8442 138.836 55.4637 138.828 56.0871L138.78 59.5688C138.745 62.1545 140.687 64.3405 143.259 64.6096L145.393 64.8328C145.799 64.8754 146.199 64.9676 146.583 65.1075L151.664 66.9579C152.094 67.1145 152.501 67.3294 152.872 67.5966L157.097 70.6345C157.458 70.894 157.783 71.2004 158.063 71.5456L161.099 75.2921C161.682 76.0109 162.054 76.8773 162.173 77.7949L162.991 84.0776C163.08 84.755 163.028 85.4432 162.84 86.0999L161.391 91.1598C161.258 91.6236 161.059 92.0658 160.799 92.4725L156.732 98.8479C156.443 99.301 156.082 99.7045 155.665 100.043L152.23 102.827C150.422 104.293 149.864 106.813 150.886 108.905L152.326 111.854C152.449 112.105 152.551 112.367 152.63 112.636L154.417 118.708C154.555 119.174 154.623 119.657 154.621 120.143L154.59 126.947C154.588 127.375 154.531 127.8 154.421 128.214L153.091 133.196C152.755 134.453 151.943 135.529 150.827 136.197L146.508 138.782C145.898 139.147 145.217 139.378 144.511 139.459L138.126 140.193L131.096 140.561C130.574 140.588 130.05 140.533 129.545 140.399L127.11 139.749C124.63 139.087 122.052 140.41 121.144 142.811L120.239 145.205C120.024 145.772 119.708 146.295 119.306 146.75L115.273 151.306L111.914 155.216C111.366 155.854 110.667 156.343 109.88 156.638L106.028 158.086C104.89 158.513 103.636 158.512 102.5 158.082L97.4933 156.188C97.0228 156.01 96.5818 155.762 96.1852 155.453L91.037 151.434C90.8326 151.274 90.641 151.099 90.4638 150.909L85.2084 145.296L82.2139 141.053C81.0135 139.352 78.8848 138.573 76.87 139.097L74.2189 139.787C73.7341 139.913 73.233 139.965 72.7326 139.943L67.0219 139.683C66.7168 139.669 66.4136 139.627 66.1162 139.558L61.0052 138.368C60.4531 138.24 59.9268 138.018 59.449 137.714L55.4378 135.154C54.5258 134.573 53.8271 133.711 53.4466 132.698L51.7732 128.244C51.5739 127.713 51.4662 127.153 51.4548 126.586L51.3493 121.339C51.3432 121.034 51.3651 120.729 51.4146 120.427L52.3424 114.787C52.4237 114.292 52.5788 113.813 52.8026 113.365L53.9708 111.025C54.9278 109.108 54.5571 106.794 53.049 105.272L51.4999 103.709L47.8754 99.2369L44.9589 95.6387C44.7291 95.3553 44.5311 95.0476 44.3684 94.7211L42.4114 90.7957Z" stroke="url(#paint3_linear_2_23)" stroke-opacity="0.81" stroke-width="5" shape-rendering="crispEdges"/>
</g>
<defs>
<filter id="filter0_i_2_23" x="35.7323" y="30.7757" width="130.768" height="130.724" filterUnits="userSpaceOnUse" color-interpolation-filters="sRGB">
<feFlood flood-opacity="0" result="BackgroundImageFix"/>
<feBlend mode="normal" in="SourceGraphic" in2="BackgroundImageFix" result="shape"/>
<feColorMatrix in="SourceAlpha" type="matrix" values="0 0 0 0 0 0 0 0 0 0 0 0 0 0 0 0 0 0 127 0" result="hardAlpha"/>
<feOffset dy="4"/>
<feGaussianBlur stdDeviation="2"/>
<feComposite in2="hardAlpha" operator="arithmetic" k2="-1" k3="1"/>
<feColorMatrix type="matrix" values="0 0 0 0 0.0129192 0 0 0 0 0 0 0 0 0 0.645959 0 0 0 1 0"/>
<feBlend mode="normal" in2="shape" result="effect1_innerShadow_2_23"/>
</filter>
<filter id="filter1_d_2_23" x="33.6239" y="33.9657" width="135.909" height="134.94" filterUnits="userSpaceOnUse" color-interpolation-filters="sRGB">
<feFlood flood-opacity="0" result="BackgroundImageFix"/>
<feColorMatrix in="SourceAlpha" type="matrix" values="0 0 0 0 0 0 0 0 0 0 0 0 0 0 0 0 0 0 127 0" result="hardAlpha"/>
<feOffset dy="4"/>
<feGaussianBlur stdDeviation="2"/>
<feComposite in2="hardAlpha" operator="out"/>
<feColorMatrix type="matrix" values="0 0 0 0 0.0129192 0 0 0 0 0 0 0 0 0 0.645959 0 0 0 0.48 0"/>
<feBlend mode="normal" in2="BackgroundImageFix" result="effect1_dropShadow_2_23"/>
<feBlend mode="normal" in="SourceGraphic" in2="effect1_dropShadow_2_23" result="shape"/>
</filter>
<linearGradient id="paint0_linear_2_23" x1="100" y1="0" x2="100" y2="200" gradientUnits="userSpaceOnUse">
<stop stop-color="#FF42F7"/>
<stop offset="1" stop-color="#FF0000"/>
</linearGradient>
<linearGradient id="paint1_linear_2_23" x1="100" y1="0" x2="100" y2="200" gradientUnits="userSpaceOnUse">
<stop stop-color="#FF9EF5"/>
<stop offset="1" stop-color="#0300A5"/>
</linearGradient>
<linearGradient id="paint2_linear_2_23" x1="101" y1="33" x2="101" y2="155" gradientUnits="userSpaceOnUse">
<stop stop-color="#FF9EF5"/>
<stop offset="1" stop-color="#0300A5"/>
</linearGradient>
<linearGradient id="paint3_linear_2_23" x1="54.0328" y1="134.258" x2="147.492" y2="58.5045" gradientUnits="userSpaceOnUse">
<stop stop-color="#FF9EF5"/>
<stop offset="1" stop-color="#0300A5"/>
</linearGradient>
</defs>
</svg>
